<svg xmlns="http://www.w3.org/2000/svg" viewBox="0 0 64 64" id="gentleness" fill="#00cc00" height="64px" width="64px">
  <path d="M53.52 37.55c-3.72-5.36-12.47-8.31-15.06-9.09v-4.67c3.6-3.99 4.13-9.68 4.15-9.94.16-1.4.19-2.69.07-3.83V10c0-.02 0-.05-.01-.07C41.79-.25 31.88 0 31.86 0c-.19 0-4.67-.13-7.88 2.99-2.08 2.02-3.12 4.91-3.09 8.58.01.71.06 1.47.14 2.25.02.28.58 6.35 4.52 10.36v4.28c-2.44.74-10.34 3.41-14.36 8.19-1.35 1.59-2.09 3.73-2.09 6V57.1c0 2.67 1.5 5.05 3.91 6.22.95.46 1.97.69 2.97.69 1.49 0 2.96-.5 4.2-1.47.08-.06.15-.11.21-.18l.37-.37h33.2c.54 0 .97-.43.97-.97V42.07c-.01-1.65-.49-3.21-1.41-4.52zM25.32 4.39c2.6-2.54 6.43-2.45 6.54-2.45.32-.01 7.54-.13 8.76 7.23C35.6 9.56 29 6.1 28.93 6.07a.968.968 0 0 0-1.01.06l-4.98 3.48c.27-2.18 1.06-3.94 2.38-5.22zm-2.37 9.24c-.06-.55-.09-1.08-.11-1.59l5.71-3.99c1.76.86 7.47 3.43 12.24 3.05.02.79 0 1.62-.1 2.55-.01.07-.66 7.02-5.29 10.29-.04.02-.07.04-.1.06-.12.09-.23.16-.35.24-1.96 1.22-4.3 1.22-6.26 0-.12-.08-.24-.15-.35-.24a.673.673 0 0 0-.11-.07c-.17-.12-.33-.24-.48-.37-4.19-3.39-4.79-9.85-4.8-9.93zm13.58 11.89v3.11c-3.23 1.95-6.2 1.96-9.05.03v-2.89c.06.04.12.08.19.12 1.28.79 2.72 1.19 4.16 1.19s2.87-.4 4.15-1.19c.14-.08.26-.17.39-.26.02-.01.05-.03.07-.04.03-.02.05-.05.09-.07zM19.66 60.33l-.63.63c-.01.01-.08.06-.09.07-1.48 1.17-3.38 1.37-5.09.54a4.932 4.932 0 0 1-2.81-4.47v-7.93l6.55.04v3.45a.967.967 0 0 0 .97.97c.21 0 .42-.07.59-.2l9.97-7.66c1.65-1.36 2.77-2.63 3.44-3.87.55-1.02 1.02-1.96 1.27-3.17.44-2.08.88-2.89 1.36-3.37-.06.14-.14.3-.24.49-.29.55-.79 1.46-.12 2.33.21.27.55.41.9.37 1.3-.18 2.03-.39 3.18-1.26l-.73.61c-.41.34-.47.95-.13 1.37.34.41.95.47 1.37.13l2.2-1.82 1.16-.87-1.55 1.27-1.75 1.39a.97.97 0 0 0 1.2 1.52L44.31 38c.02 0 .04-.01.05 0l.18-.19.2-.16-.38.47-.81.66-.53.43c-.01 0-.01.01-.01.02l-1.63 1.33a.96.96 0 0 0-.14 1.36c.19.24.47.36.75.36.03 0 .05-.01.08-.01l-1.42 1.12a6.54 6.54 0 0 1-3.13 1.36c-1.33.2-2.64.73-3.77 1.54-1.86 1.34-2.45 2-3.27 2.91-.25.28-.53.59-.88.95-.29.3-.56.62-.83.94-.25.3-.51.61-.78.88l-8.33 8.36zM43.3 36.29l.27-.2-.2.16c-.03.02-.05.03-.07.04zm9.68 23.75h-30.3l6.68-6.71c.31-.32.6-.66.89-1 .24-.29.48-.58.75-.85.37-.38.65-.7.92-1 .77-.85 1.28-1.42 2.96-2.63.88-.63 1.9-1.05 2.93-1.2 1.48-.22 2.88-.83 4.05-1.76l4.26-3.36c.45-.36.71-.89.71-1.47 0-.53-.22-1.03-.59-1.36.06-.18.11-.37.12-.57.02-.58-.2-1.14-.62-1.54-.07-.07-.15-.12-.22-.18.02-.09.04-.19.04-.29.02-.59-.23-1.15-.67-1.53a1.98 1.98 0 0 0-1.83-.42l-.12-.18c-.67-.8-1.87-.93-2.69-.27l-2.5 2.03c-.31.24-.56.4-.81.52.25-.55.45-1.25.17-2.04-.22-.61-.61-1.02-1.1-1.17-.26-.08-.8-.15-1.39.29-1.26.93-2.02 1.96-2.65 4.99-.2.96-.59 1.74-1.08 2.65-.55 1.02-1.52 2.09-2.94 3.27l-8.38 6.44v-2.45c0-.53-.43-.97-.96-.97l-7.53-.05v-4.59c0-1.82.58-3.5 1.64-4.75 3.78-4.5 11.76-7.08 13.67-7.65 1.77 1.21 3.6 1.83 5.48 1.83 1.89 0 3.83-.62 5.82-1.84 1.96.58 10.82 3.43 14.29 8.42.69.99 1.05 2.17 1.05 3.41v17.98z"></path>
</svg>
