<svg fill="currentColor" version="1.1" id="Layer_1" xmlns="http://www.w3.org/2000/svg" xmlns:xlink="http://www.w3.org/1999/xlink" viewBox="0 0 503.607 503.607" xml:space="preserve"><g id="SVGRepo_bgCarrier" strokeWidth="0"></g><g id="SVGRepo_tracerCarrier" strokeLinecap="round" strokeLinejoin="round"></g><g id="SVGRepo_iconCarrier"> <g> <g> <path d="M486.82,239.213h-33.574c-9.258,0-16.787,7.529-16.787,16.787v8.393H318.951V146.885h8.393 c9.258,0,16.787-7.529,16.787-16.787V96.525c0-9.258-7.529-16.787-16.787-16.787H176.262c-9.258,0-16.787,7.529-16.787,16.787 v33.574c0,9.258,7.529,16.787,16.787,16.787h8.393v117.508H67.148V256c0-9.258-7.529-16.787-16.787-16.787H16.787 C7.529,239.213,0,246.742,0,256v151.082c0,9.258,7.529,16.787,16.787,16.787h33.574c9.258,0,16.787-7.529,16.787-16.787v-8.393 h369.311v8.393c0,9.258,7.529,16.787,16.787,16.787h33.574c9.258,0,16.787-7.529,16.787-16.787V256 C503.607,246.742,496.078,239.213,486.82,239.213z M50.377,407.082H16.787V256h33.574v16.778v0.008v117.508 c0,0.025,0.017,0.05,0.017,0.076V407.082z M192.974,130.115h-16.711V96.525h151.082v33.574h-16.779h-0.008H268.59 c0.008,0,0.017,0.008,0.034,0.008h-0.067c0.017,0,0.025-0.008,0.034-0.008h-75.541 C193.024,130.098,192.999,130.115,192.974,130.115z M268.59,180.459c-4.642,0-8.393-3.752-8.393-8.393v-25.18h16.787v25.18 C276.984,176.707,273.232,180.459,268.59,180.459z M276.984,205.639c0,4.633-3.76,8.393-8.393,8.393s-8.393-3.76-8.393-8.393 s3.76-8.393,8.393-8.393S276.984,201.006,276.984,205.639z M352.525,314.754H268.59c-4.642,0-8.393-3.752-8.393-8.393v-67.148 c0-4.642,3.752-8.393,8.393-8.393c4.642,0,8.393,3.752,8.393,8.393v58.754h75.541c4.642,0,8.393,3.752,8.393,8.393 C360.918,311.002,357.166,314.754,352.525,314.754z M436.459,314.754h-33.574c-4.642,0-8.393-3.752-8.393-8.393 c0-4.642,3.752-8.393,8.393-8.393h33.574V314.754z M453.246,407.082v-16.787v-83.934v-33.574V256h33.574l0.017,151.082H453.246z"></path> </g> </g> </g></svg>